<?xml version="1.0" encoding="UTF-8"?>
<svg width="21px" height="32px" viewBox="0 0 21 32" version="1.1" xmlns="http://www.w3.org/2000/svg" xmlns:xlink="http://www.w3.org/1999/xlink">
    <!-- Generator: Sketch 55.2 (78181) - https://sketchapp.com -->
    <title>E</title>
    <desc>Created with Sketch.</desc>
    <g id="Page-1" stroke="none" stroke-width="1" fill="none" fill-rule="evenodd">
        <g id="Artboard-DESKTOP-Copy" transform="translate(-348.000000, -230.000000)" fill="#323E3B" fill-rule="nonzero">
            <path d="M356.875,230.828125 C358.958344,230.296872 362.208311,230.03125 366.625,230.03125 C367.250003,230.03125 367.765623,230.0625 368.171875,230.125 C368.578127,230.1875 368.78125,230.343749 368.78125,230.59375 C368.78125,230.958335 368.635418,231.239582 368.34375,231.4375 C368.25,231.5 368.140626,231.53125 368.015625,231.53125 L365.859375,231.53125 C361.369769,231.53125 358.296883,231.807289 356.640625,232.359375 C356.234373,233.796882 355.747399,235.911444 355.179688,238.703125 C354.611976,241.494806 354.203126,243.401037 353.953125,244.421875 C354.640628,244.505209 356.098947,244.546875 358.328125,244.546875 C360.557303,244.546875 362.046871,244.526042 362.796875,244.484375 C363.16146,244.588542 363.34375,244.760415 363.34375,245 C363.34375,245.427085 363.132815,245.710937 362.710938,245.851562 C362.28906,245.992188 361.614588,246.0625 360.6875,246.0625 L353.640625,245.890625 C353.27604,247.182298 352.755212,249.398422 352.078125,252.539062 C351.401038,255.679703 350.833336,258.020826 350.375,259.5625 L362.734375,259.8125 C363.79688,259.8125 364.531248,259.791667 364.9375,259.75 C365.302085,259.854167 365.484375,260.03125 365.484375,260.28125 C365.484375,260.718752 365.244794,261.005208 364.765625,261.140625 C364.442707,261.234375 363.804692,261.28125 362.851562,261.28125 C361.898433,261.28125 360.809902,261.263021 359.585938,261.226562 C358.361973,261.190104 357.179693,261.151042 356.039062,261.109375 C354.898432,261.067708 353.846359,261.028646 352.882812,260.992188 C351.919266,260.955729 351.125003,260.9375 350.5,260.9375 L349.421875,261.03125 C349.05729,261.03125 348.815105,260.95573 348.695312,260.804688 C348.57552,260.653645 348.515625,260.510417 348.515625,260.375 C348.515625,260.239583 348.552083,260.114584 348.625,260 C348.697917,259.885416 348.791666,259.700522 348.90625,259.445312 C349.020834,259.190103 349.151041,258.84896 349.296875,258.421875 C349.56771,257.619788 349.851561,256.578131 350.148438,255.296875 C350.445314,254.015619 351.007808,251.395853 351.835938,247.4375 C352.664067,243.479147 353.703119,238.677112 354.953125,233.03125 C354.609373,233 354.4375,232.794273 354.4375,232.414062 C354.4375,232.033852 354.749997,231.677085 355.375,231.34375 C355.375,230.67708 355.692705,230.34375 356.328125,230.34375 C356.640627,230.34375 356.822916,230.505207 356.875,230.828125 Z" id="E"></path>
        </g>
    </g>
</svg>