<?xml version="1.0" encoding="UTF-8"?>
<svg width="34px" height="34px" viewBox="0 0 34 34" version="1.1" xmlns="http://www.w3.org/2000/svg" xmlns:xlink="http://www.w3.org/1999/xlink">
    <!-- Generator: Sketch 55.2 (78181) - https://sketchapp.com -->
    <title>H</title>
    <desc>Created with Sketch.</desc>
    <g id="Page-1" stroke="none" stroke-width="1" fill="none" fill-rule="evenodd">
        <g id="Artboard-DESKTOP-Copy" transform="translate(-288.000000, -236.000000)" fill="#323E3B" fill-rule="nonzero">
            <g id="HELLO" transform="translate(233.000000, 194.000000)">
                <path d="M56.703125,64.5 L56.765625,64.78125 C56.765625,65.0208345 56.6796884,65.2317699 56.5078125,65.4140625 C56.3359366,65.5963551 56.1458344,65.6875 55.9375,65.6875 C55.4895811,65.6875 55.265625,65.3750031 55.265625,64.75 C55.265625,63.489577 56.5260291,62.1041742 59.046875,60.59375 C59.9114627,60.0833308 60.6119765,59.7291677 61.1484375,59.53125 C61.6848985,59.3333323 62.2369763,59.1093762 62.8046875,58.859375 C63.3723987,58.6093738 63.8567688,58.4192715 64.2578125,58.2890625 C64.6588562,58.1588535 64.9166661,58.0729169 65.03125,58.03125 C65.4791689,56.1562406 65.8229155,54.2083434 66.0625,52.1875 C66.3020845,50.1666566 66.4869785,48.5599018 66.6171875,47.3671875 C66.7473965,46.1744732 66.8906242,44.9843809 67.046875,43.796875 C67.1093753,43.2864558 67.4166639,43.03125 67.96875,43.03125 C68.1979178,43.03125 68.3515621,43.0729163 68.4296875,43.15625 C68.5078129,43.2395838 68.5364584,43.3749991 68.515625,43.5625 C68.265625,46.5520983 67.6250052,51.2343431 66.59375,57.609375 C69.8020994,56.7864542 73.8645588,56.2656261 78.78125,56.046875 C79.4791702,50.7551819 79.9010409,47.812503 80.046875,47.21875 C80.5052106,45.3645741 80.7552081,44.1145866 80.796875,43.46875 C80.8593753,43.2604156 80.9817699,43.0807299 81.1640625,42.9296875 C81.3463551,42.7786451 81.5364573,42.703125 81.734375,42.703125 C81.994793,42.703125 82.1718745,42.8854148 82.265625,43.25 C82.2343748,43.8229195 82.1354175,44.4687464 81.96875,45.1875 L81.578125,46.875 C81.3906241,47.6875041 81.166668,49.0807193 80.90625,51.0546875 C80.645832,53.0286557 80.4270842,54.682285 80.25,56.015625 L87.546875,55.796875 C87.9114602,55.8906255 88.09375,56.0729153 88.09375,56.34375 C88.09375,56.5312509 88.0182299,56.7161449 87.8671875,56.8984375 C87.7161451,57.0807301 87.5364594,57.203125 87.328125,57.265625 C86.1197856,57.3177086 84.9114644,57.3541666 83.703125,57.375 C82.4947856,57.3958334 81.2708395,57.4218748 80.03125,57.453125 C79.8437491,58.9739659 79.5677102,60.6510325 79.203125,62.484375 C78.8385398,64.3177175 78.4921891,66.1380118 78.1640625,67.9453125 C77.8359359,69.7526132 77.635417,71.5885323 77.5625,73.453125 C77.5312498,73.713543 77.4192718,73.9296866 77.2265625,74.1015625 C77.0338532,74.2734384 76.8385427,74.359375 76.640625,74.359375 C76.3177067,74.359375 76.1354169,74.1354189 76.09375,73.6875 C76.166667,71.760407 76.36979,69.8828216 76.703125,68.0546875 C77.03646,66.2265534 77.3124989,64.7630263 77.53125,63.6640625 C77.7500011,62.5650987 77.9531241,61.4583389 78.140625,60.34375 L78.59375,57.515625 C73.6458086,57.7135427 69.5156416,58.2604122 66.203125,59.15625 C65.5572884,61.7708464 64.8671912,64.3541539 64.1328125,66.90625 C63.3984338,69.4583461 62.7239614,71.9739459 62.109375,74.453125 C61.8906239,74.8802105 61.5937519,75.09375 61.21875,75.09375 C60.8958317,75.09375 60.7135419,74.8802105 60.671875,74.453125 C61.2552113,72.0572797 61.9010381,69.6171999 62.609375,67.1328125 C63.3177119,64.6484251 63.9947884,62.1354294 64.640625,59.59375 C61.9114447,60.5000045 59.7447997,61.5885353 58.140625,62.859375 C58.0572912,62.9218753 57.9375008,63.0104161 57.78125,63.125 C57.0624964,63.6562527 56.703125,64.0937483 56.703125,64.4375 C56.703125,64.4583334 56.703125,64.4791666 56.703125,64.5 Z" id="H"></path>
            </g>
        </g>
    </g>
</svg>