<?xml version="1.0" encoding="UTF-8"?>
<svg width="15px" height="32px" viewBox="0 0 15 32" version="1.1" xmlns="http://www.w3.org/2000/svg" xmlns:xlink="http://www.w3.org/1999/xlink">
    <!-- Generator: Sketch 55.2 (78181) - https://sketchapp.com -->
    <title>L</title>
    <desc>Created with Sketch.</desc>
    <g id="Page-1" stroke="none" stroke-width="1" fill="none" fill-rule="evenodd">
        <g id="Artboard-DESKTOP-Copy" transform="translate(-388.000000, -249.000000)" fill="#323E3B" fill-rule="nonzero">
            <path d="M389.578125,279.96875 C389.473958,280.010417 389.367188,280.03125 389.257812,280.03125 C389.148437,280.03125 389.046875,279.960938 388.953125,279.820312 C388.859375,279.679687 388.8125,279.450522 388.8125,279.132812 C388.8125,278.815103 388.968748,278.411461 389.28125,277.921875 C389.593752,277.432289 389.807291,276.945315 389.921875,276.460938 C390.036459,275.97656 390.317706,274.953133 390.765625,273.390625 C391.213544,271.828117 391.630206,269.994802 392.015625,267.890625 C392.401044,265.786448 392.973955,262.966164 393.734375,259.429688 C394.494795,255.893211 395.145831,252.796888 395.6875,250.140625 C395.75,249.932291 395.874999,249.752605 396.0625,249.601562 C396.250001,249.45052 396.432291,249.375 396.609375,249.375 C396.890626,249.375 397.072916,249.55729 397.15625,249.921875 C396.677081,252.036469 396.005213,255.32029 395.140625,259.773438 C394.276037,264.226585 393.651044,267.249992 393.265625,268.84375 C392.880206,270.437508 392.528647,272.046867 392.210938,273.671875 C391.893228,275.296883 391.515627,276.828118 391.078125,278.265625 C393.34897,278.651044 395.192701,278.84375 396.609375,278.84375 L397.28125,278.84375 L400.09375,278.71875 C400.489585,278.71875 401.187495,278.656251 402.1875,278.53125 C402.552085,278.625 402.734375,278.80729 402.734375,279.078125 C402.734375,279.255209 402.656251,279.437499 402.5,279.625 C402.343749,279.812501 402.161459,279.9375 401.953125,280 C400.473951,280.145834 399.046882,280.21875 397.671875,280.21875 L389.578125,279.96875 Z" id="L"></path>
        </g>
    </g>
</svg>