<?xml version="1.0" encoding="UTF-8"?>
<svg width="20px" height="33px" viewBox="0 0 20 33" version="1.1" xmlns="http://www.w3.org/2000/svg" xmlns:xlink="http://www.w3.org/1999/xlink">
    <!-- Generator: Sketch 55.2 (78181) - https://sketchapp.com -->
    <title>O</title>
    <desc>Created with Sketch.</desc>
    <g id="Page-1" stroke="none" stroke-width="1" fill="none" fill-rule="evenodd">
        <g id="Artboard-DESKTOP-Copy" transform="translate(-479.000000, -226.000000)" fill="#323E3B" fill-rule="nonzero">
            <path d="M485.65625,258.703125 C481.854148,258.703125 479.953125,255.32295 479.953125,248.5625 C479.953125,243.98956 480.833325,239.770853 482.59375,235.90625 C484.50001,231.687479 486.98436,229.578125 490.046875,229.578125 C491.234381,229.578125 492.354161,230.005204 493.40625,230.859375 C493.593751,231.067709 493.6875,231.281249 493.6875,231.5 C493.6875,232.010419 493.515627,232.265625 493.171875,232.265625 C493.088541,232.265625 492.843752,232.156251 492.4375,231.9375 C491.489579,231.416664 490.526047,231.15625 489.546875,231.15625 C488.265619,231.15625 486.984381,231.992179 485.703125,233.664062 C484.421869,235.335946 483.385421,237.484362 482.59375,240.109375 C481.802079,242.734388 481.40625,245.328112 481.40625,247.890625 C481.40625,252.838566 482.322907,255.833328 484.15625,256.875 C484.593752,257.114585 485.182288,257.234375 485.921875,257.234375 C486.661462,257.234375 487.437496,257.052085 488.25,256.6875 C490.489595,255.656245 492.369784,253.479183 493.890625,250.15625 C494.848963,248.06249 495.578123,245.833345 496.078125,243.46875 C496.578127,241.104155 496.828125,238.815115 496.828125,236.601562 C496.828125,234.38801 496.416671,232.437508 495.59375,230.75 C494.999997,229.562494 494.229171,228.833335 493.28125,228.5625 C492.802081,228.437499 492.346356,228.333334 491.914062,228.25 C491.481769,228.166666 491.114585,228.072917 490.8125,227.96875 C490.510415,227.864583 490.359375,227.708334 490.359375,227.5 C490.359375,227.104165 490.624997,226.869792 491.15625,226.796875 C495.333354,226.796875 497.677081,229.531223 498.1875,235 C498.28125,235.927088 498.328125,236.927078 498.328125,238 C498.328125,240.291678 498.018232,242.658842 497.398438,245.101562 C496.778643,247.544283 495.898443,249.802073 494.757812,251.875 C493.617182,253.947927 492.268237,255.60416 490.710938,256.84375 C489.153638,258.08334 487.468759,258.703125 485.65625,258.703125 Z" id="O"></path>
        </g>
    </g>
</svg>